<svg width="594" height="301" viewBox="0 0 594 301" fill="none" xmlns="http://www.w3.org/2000/svg">
<g opacity="0.3">
<line x1="592.336" y1="201.317" x2="1" y2="201.317" stroke="#94A3B8"/>
<line x1="592.336" y1="300.5" x2="1" y2="300.5" stroke="#94A3B8"/>
<line x1="592.336" y1="104.722" x2="1" y2="104.722" stroke="#94A3B8"/>
<line x1="592.336" y1="0.5" x2="1" y2="0.5" stroke="#94A3B8"/>
</g>
<path d="M30.5668 113.978L1 135.708V300H592.336L562.769 120.598L533.202 0L503.636 173.81L474.069 181.757L444.502 42.8227L414.935 20.0333L385.368 225.835L355.802 103.353L326.235 87.183L296.668 59.7983L267.101 188.639L237.534 256.959L207.968 213.522L178.401 216.556L148.834 125.057L119.267 170.791L89.7004 145.844L60.1336 60.7134L30.5668 113.978Z" fill="url(#paint0_linear_6_33)"/>
<path d="M1 135.708L30.5668 113.978L60.1336 60.7134L74.917 103.279L89.7004 145.844L119.267 170.791L148.834 125.057L178.401 216.556L207.968 213.522L237.534 256.959L267.101 188.639L296.668 59.7983L326.235 87.183L355.802 103.353L385.368 225.835L414.935 20.0333L444.502 42.8227L474.069 181.757L503.636 173.81L534.5 6L562.769 120.598L592.336 300" stroke="#7C3AED" stroke-width="2"/>
<line x1="503.947" y1="-2.18557e-08" x2="503.947" y2="300" stroke="#94A3B8" stroke-dasharray="4 4"/>
<circle cx="504" cy="173.315" r="4" fill="#7C3AED"/>
<g filter="url(#filter0_d_6_33)">
<rect x="430.447" y="48" width="146" height="40" rx="4" fill="white" shape-rendering="crispEdges"/>
<path d="M442.683 73.1392C442.1 73.1392 441.575 73.0232 441.107 72.7912C440.64 72.5592 440.265 72.241 439.984 71.8366C439.702 71.4323 439.548 70.9716 439.521 70.4545H440.714C440.761 70.9152 440.97 71.2964 441.341 71.598C441.715 71.8963 442.163 72.0455 442.683 72.0455C443.101 72.0455 443.472 71.9477 443.797 71.7521C444.125 71.5566 444.382 71.2881 444.567 70.9467C444.756 70.602 444.851 70.2126 444.851 69.7784C444.851 69.3343 444.753 68.9382 444.557 68.5902C444.365 68.2389 444.1 67.9621 443.762 67.7599C443.424 67.5578 443.038 67.455 442.604 67.4517C442.292 67.4484 441.972 67.4964 441.644 67.5959C441.316 67.692 441.046 67.8163 440.834 67.9688L439.68 67.8295L440.297 62.8182H445.587V63.9119H441.331L440.973 66.9148H441.033C441.241 66.7491 441.503 66.6115 441.818 66.5021C442.133 66.3928 442.461 66.3381 442.803 66.3381C443.426 66.3381 443.981 66.4872 444.468 66.7855C444.959 67.0805 445.343 67.4848 445.621 67.9986C445.903 68.5123 446.044 69.099 446.044 69.7585C446.044 70.4081 445.898 70.9882 445.606 71.4986C445.318 72.0057 444.92 72.4067 444.413 72.7017C443.906 72.9934 443.329 73.1392 442.683 73.1392ZM449.406 71.608L449.326 72.1449C449.27 72.5227 449.184 72.9271 449.068 73.358C448.955 73.7888 448.838 74.1948 448.715 74.576C448.592 74.9571 448.491 75.2604 448.412 75.4858H447.517C447.56 75.2737 447.616 74.9936 447.686 74.6456C447.755 74.2976 447.825 73.9081 447.895 73.4773C447.968 73.0497 448.027 72.6122 448.074 72.1648L448.133 71.608H449.406ZM453.923 62.8182V73H452.69V64.1108H452.63L450.144 65.7614V64.5085L452.69 62.8182H453.923ZM460.232 73.1392C459.814 73.1326 459.396 73.053 458.979 72.9006C458.561 72.7481 458.18 72.4912 457.835 72.13C457.491 71.7654 457.214 71.2732 457.005 70.6534C456.796 70.0303 456.692 69.2481 456.692 68.3068C456.692 67.4053 456.776 66.6065 456.945 65.9105C457.114 65.2112 457.36 64.6229 457.681 64.1456C458.003 63.665 458.391 63.3004 458.845 63.0518C459.302 62.8033 459.817 62.679 460.391 62.679C460.961 62.679 461.468 62.7933 461.912 63.022C462.359 63.2474 462.724 63.5623 463.006 63.9666C463.288 64.371 463.47 64.8366 463.553 65.3636H462.34C462.227 64.9062 462.008 64.5268 461.683 64.2251C461.359 63.9235 460.928 63.7727 460.391 63.7727C459.602 63.7727 458.98 64.1158 458.526 64.8018C458.076 65.4879 457.849 66.4508 457.845 67.6903H457.925C458.11 67.4086 458.331 67.1683 458.586 66.9695C458.845 66.7673 459.13 66.6115 459.441 66.5021C459.753 66.3928 460.083 66.3381 460.431 66.3381C461.014 66.3381 461.547 66.4839 462.031 66.7756C462.515 67.0639 462.903 67.4633 463.195 67.9737C463.486 68.4808 463.632 69.0625 463.632 69.7188C463.632 70.3485 463.491 70.9252 463.21 71.4489C462.928 71.9692 462.532 72.3835 462.021 72.6918C461.514 72.9967 460.918 73.1458 460.232 73.1392ZM460.232 72.0455C460.649 72.0455 461.024 71.9411 461.355 71.7322C461.69 71.5234 461.953 71.2434 462.146 70.892C462.341 70.5407 462.439 70.1496 462.439 69.7188C462.439 69.2978 462.345 68.915 462.156 68.5703C461.97 68.2223 461.713 67.9455 461.385 67.7401C461.06 67.5346 460.689 67.4318 460.271 67.4318C459.957 67.4318 459.663 67.4948 459.391 67.6207C459.12 67.7434 458.881 67.9124 458.676 68.1278C458.473 68.3433 458.314 68.5902 458.198 68.8686C458.082 69.1437 458.024 69.4337 458.024 69.7386C458.024 70.143 458.119 70.5208 458.308 70.8722C458.5 71.2235 458.762 71.5069 459.093 71.7223C459.428 71.9377 459.807 72.0455 460.232 72.0455ZM474.954 67.0739L473.9 67.3722C473.834 67.1965 473.736 67.0258 473.606 66.8601C473.481 66.6911 473.308 66.5518 473.089 66.4425C472.871 66.3331 472.591 66.2784 472.249 66.2784C471.782 66.2784 471.392 66.3861 471.081 66.6016C470.773 66.8137 470.619 67.0838 470.619 67.4119C470.619 67.7036 470.725 67.9339 470.937 68.103C471.149 68.272 471.48 68.4129 471.931 68.5256L473.065 68.804C473.747 68.9697 474.256 69.2232 474.591 69.5646C474.926 69.9027 475.093 70.3385 475.093 70.8722C475.093 71.3097 474.967 71.7008 474.715 72.0455C474.467 72.3902 474.119 72.6619 473.671 72.8608C473.224 73.0597 472.703 73.1591 472.11 73.1591C471.331 73.1591 470.686 72.9901 470.176 72.652C469.666 72.3139 469.343 71.8201 469.207 71.1705L470.32 70.892C470.426 71.303 470.627 71.6113 470.922 71.8168C471.22 72.0223 471.61 72.125 472.09 72.125C472.637 72.125 473.071 72.009 473.393 71.777C473.718 71.5417 473.88 71.2599 473.88 70.9318C473.88 70.6667 473.787 70.4446 473.602 70.2656C473.416 70.0833 473.131 69.9474 472.746 69.858L471.474 69.5597C470.774 69.3939 470.261 69.1371 469.932 68.7891C469.608 68.4377 469.445 67.9986 469.445 67.4716C469.445 67.0407 469.566 66.6596 469.808 66.3281C470.053 65.9967 470.387 65.7365 470.807 65.5476C471.232 65.3587 471.712 65.2642 472.249 65.2642C473.005 65.2642 473.598 65.4299 474.029 65.7614C474.463 66.0928 474.771 66.5303 474.954 67.0739ZM480.061 73.1591C479.325 73.1591 478.69 72.9967 478.157 72.6719C477.626 72.3438 477.217 71.8864 476.929 71.2997C476.644 70.7098 476.501 70.0237 476.501 69.2415C476.501 68.4593 476.644 67.7699 476.929 67.1733C477.217 66.5734 477.618 66.1061 478.132 65.7713C478.649 65.4332 479.252 65.2642 479.942 65.2642C480.339 65.2642 480.732 65.3305 481.12 65.4631C481.508 65.5956 481.861 65.8111 482.179 66.1094C482.497 66.4044 482.75 66.7955 482.939 67.2827C483.128 67.7699 483.223 68.3698 483.223 69.0824V69.5795H477.336V68.5653H482.03C482.03 68.1345 481.943 67.75 481.771 67.4119C481.602 67.0739 481.36 66.8071 481.045 66.6115C480.734 66.416 480.366 66.3182 479.942 66.3182C479.474 66.3182 479.07 66.4342 478.728 66.6662C478.39 66.8949 478.13 67.1932 477.948 67.5611C477.766 67.929 477.674 68.3234 477.674 68.7443V69.4205C477.674 69.9972 477.774 70.486 477.973 70.8871C478.175 71.2848 478.455 71.5881 478.813 71.7969C479.171 72.0024 479.587 72.1051 480.061 72.1051C480.369 72.1051 480.647 72.062 480.896 71.9759C481.148 71.8864 481.365 71.7538 481.547 71.5781C481.73 71.3991 481.871 71.1771 481.97 70.9119L483.103 71.2301C482.984 71.6146 482.784 71.9527 482.502 72.2443C482.22 72.5327 481.872 72.758 481.458 72.9205C481.044 73.0795 480.578 73.1591 480.061 73.1591ZM488.09 76.0227C487.523 76.0227 487.036 75.9498 486.628 75.804C486.221 75.6615 485.881 75.4725 485.609 75.2372C485.341 75.0052 485.127 74.7566 484.968 74.4915L485.902 73.8352C486.009 73.9744 486.143 74.1335 486.305 74.3125C486.468 74.4948 486.69 74.6522 486.971 74.7848C487.256 74.9207 487.629 74.9886 488.09 74.9886C488.706 74.9886 489.215 74.8395 489.616 74.5412C490.017 74.2429 490.218 73.7756 490.218 73.1392V71.5881H490.118C490.032 71.7273 489.91 71.8996 489.75 72.1051C489.595 72.3073 489.369 72.4879 489.074 72.647C488.783 72.8028 488.388 72.8807 487.891 72.8807C487.275 72.8807 486.721 72.7348 486.231 72.4432C485.743 72.1515 485.357 71.7273 485.072 71.1705C484.79 70.6136 484.65 69.9375 484.65 69.142C484.65 68.3598 484.787 67.6787 485.062 67.0987C485.337 66.5154 485.72 66.0646 486.211 65.7464C486.701 65.425 487.268 65.2642 487.911 65.2642C488.408 65.2642 488.803 65.3471 489.094 65.5128C489.389 65.6752 489.615 65.8608 489.77 66.0696C489.929 66.2751 490.052 66.4441 490.138 66.5767H490.258V65.3636H491.391V73.2188C491.391 73.875 491.242 74.4086 490.944 74.8196C490.649 75.2339 490.251 75.5372 489.75 75.7294C489.253 75.925 488.7 76.0227 488.09 76.0227ZM488.05 71.8267C488.521 71.8267 488.919 71.719 489.243 71.5036C489.568 71.2881 489.815 70.9782 489.984 70.5739C490.153 70.1695 490.238 69.6856 490.238 69.1222C490.238 68.572 490.155 68.0864 489.989 67.6655C489.823 67.2446 489.578 66.9148 489.253 66.6761C488.929 66.4375 488.527 66.3182 488.05 66.3182C487.553 66.3182 487.139 66.4441 486.807 66.696C486.479 66.9479 486.232 67.286 486.067 67.7102C485.904 68.1345 485.823 68.6051 485.823 69.1222C485.823 69.6525 485.906 70.1214 486.072 70.5291C486.241 70.9335 486.489 71.2517 486.817 71.4837C487.149 71.7124 487.56 71.8267 488.05 71.8267ZM494.394 73.0795C494.149 73.0795 493.938 72.9917 493.763 72.8161C493.587 72.6404 493.499 72.4299 493.499 72.1847C493.499 71.9394 493.587 71.7289 493.763 71.5533C493.938 71.3776 494.149 71.2898 494.394 71.2898C494.639 71.2898 494.85 71.3776 495.025 71.5533C495.201 71.7289 495.289 71.9394 495.289 72.1847C495.289 72.3471 495.247 72.4962 495.165 72.6321C495.085 72.768 494.977 72.8774 494.841 72.9602C494.709 73.0398 494.56 73.0795 494.394 73.0795ZM499.144 71.608L499.065 72.1449C499.008 72.5227 498.922 72.9271 498.806 73.358C498.694 73.7888 498.576 74.1948 498.453 74.576C498.331 74.9571 498.23 75.2604 498.15 75.4858H497.255C497.298 75.2737 497.355 74.9936 497.424 74.6456C497.494 74.2976 497.563 73.9081 497.633 73.4773C497.706 73.0497 497.766 72.6122 497.812 72.1648L497.872 71.608H499.144ZM508.815 62.8182V73H507.582V64.1108H507.523L505.037 65.7614V64.5085L507.582 62.8182H508.815ZM515.184 73.1392C514.528 73.1392 513.943 73.0265 513.429 72.8011C512.919 72.5758 512.512 72.2625 512.211 71.8615C511.913 71.4571 511.75 70.9882 511.724 70.4545H512.977C513.003 70.7827 513.116 71.0661 513.315 71.3047C513.513 71.54 513.774 71.7223 514.095 71.8516C514.417 71.9808 514.773 72.0455 515.164 72.0455C515.602 72.0455 515.989 71.9692 516.327 71.8168C516.665 71.6643 516.931 71.4522 517.123 71.1804C517.315 70.9086 517.411 70.5938 517.411 70.2358C517.411 69.8613 517.318 69.5315 517.133 69.2464C516.947 68.9581 516.675 68.7327 516.317 68.5703C515.959 68.4079 515.522 68.3267 515.005 68.3267H514.19V67.233H515.005C515.409 67.233 515.764 67.16 516.069 67.0142C516.377 66.8684 516.617 66.6629 516.79 66.3977C516.965 66.1326 517.053 65.821 517.053 65.4631C517.053 65.1184 516.977 64.8184 516.825 64.5632C516.672 64.308 516.457 64.1091 516.178 63.9666C515.903 63.8241 515.578 63.7528 515.204 63.7528C514.852 63.7528 514.521 63.8175 514.209 63.9467C513.901 64.0727 513.649 64.2566 513.454 64.4986C513.258 64.7372 513.152 65.0256 513.136 65.3636H511.942C511.962 64.83 512.123 64.3627 512.425 63.9616C512.726 63.5573 513.121 63.2424 513.608 63.017C514.098 62.7917 514.637 62.679 515.224 62.679C515.853 62.679 516.394 62.8066 516.844 63.0618C517.295 63.3137 517.642 63.6468 517.883 64.0611C518.125 64.4754 518.246 64.9228 518.246 65.4034C518.246 65.9768 518.096 66.4657 517.794 66.87C517.496 67.2744 517.09 67.5545 516.576 67.7102V67.7898C517.219 67.8958 517.721 68.1693 518.082 68.6101C518.444 69.0476 518.624 69.5895 518.624 70.2358C518.624 70.7893 518.473 71.2865 518.172 71.7273C517.874 72.1648 517.466 72.5095 516.949 72.7614C516.432 73.0133 515.843 73.1392 515.184 73.1392ZM527.499 73.1591C526.862 73.1591 526.3 72.9983 525.813 72.6768C525.326 72.352 524.945 71.8946 524.67 71.3047C524.395 70.7114 524.257 70.0104 524.257 69.2017C524.257 68.3996 524.395 67.7036 524.67 67.1136C524.945 66.5237 525.328 66.0679 525.818 65.7464C526.309 65.425 526.875 65.2642 527.518 65.2642C528.016 65.2642 528.408 65.3471 528.697 65.5128C528.988 65.6752 529.21 65.8608 529.363 66.0696C529.519 66.2751 529.64 66.4441 529.726 66.5767H529.825V62.8182H530.999V73H529.865V71.8267H529.726C529.64 71.9659 529.517 72.1416 529.358 72.3537C529.199 72.5625 528.972 72.7498 528.677 72.9155C528.382 73.0779 527.989 73.1591 527.499 73.1591ZM527.658 72.1051C528.128 72.1051 528.526 71.9825 528.851 71.7372C529.176 71.4886 529.423 71.1456 529.592 70.7081C529.761 70.2673 529.845 69.7585 529.845 69.1818C529.845 68.6117 529.762 68.1129 529.597 67.6854C529.431 67.2545 529.186 66.9197 528.861 66.6811C528.536 66.4392 528.135 66.3182 527.658 66.3182C527.16 66.3182 526.746 66.4458 526.415 66.701C526.087 66.9529 525.84 67.2959 525.674 67.7301C525.512 68.161 525.43 68.6449 525.43 69.1818C525.43 69.7254 525.513 70.2192 525.679 70.6634C525.848 71.1042 526.097 71.4555 526.425 71.7173C526.756 71.9759 527.167 72.1051 527.658 72.1051ZM536.512 73.1591C535.776 73.1591 535.142 72.9967 534.608 72.6719C534.078 72.3438 533.668 71.8864 533.38 71.2997C533.095 70.7098 532.952 70.0237 532.952 69.2415C532.952 68.4593 533.095 67.7699 533.38 67.1733C533.668 66.5734 534.069 66.1061 534.583 65.7713C535.1 65.4332 535.703 65.2642 536.393 65.2642C536.79 65.2642 537.183 65.3305 537.571 65.4631C537.959 65.5956 538.312 65.8111 538.63 66.1094C538.948 66.4044 539.202 66.7955 539.391 67.2827C539.579 67.7699 539.674 68.3698 539.674 69.0824V69.5795H533.788V68.5653H538.481C538.481 68.1345 538.395 67.75 538.222 67.4119C538.053 67.0739 537.811 66.8071 537.496 66.6115C537.185 66.416 536.817 66.3182 536.393 66.3182C535.925 66.3182 535.521 66.4342 535.18 66.6662C534.842 66.8949 534.581 67.1932 534.399 67.5611C534.217 67.929 534.126 68.3234 534.126 68.7443V69.4205C534.126 69.9972 534.225 70.486 534.424 70.8871C534.626 71.2848 534.906 71.5881 535.264 71.7969C535.622 72.0024 536.038 72.1051 536.512 72.1051C536.82 72.1051 537.099 72.062 537.347 71.9759C537.599 71.8864 537.816 71.7538 537.999 71.5781C538.181 71.3991 538.322 71.1771 538.421 70.9119L539.555 71.2301C539.435 71.6146 539.235 71.9527 538.953 72.2443C538.671 72.5327 538.323 72.758 537.909 72.9205C537.495 73.0795 537.029 73.1591 536.512 73.1591ZM548.797 65.3636V66.358H544.68V65.3636H548.797ZM545.913 73V64.3097C545.913 63.8722 546.016 63.5076 546.222 63.2159C546.427 62.9242 546.694 62.7055 547.022 62.5597C547.35 62.4138 547.696 62.3409 548.061 62.3409C548.349 62.3409 548.585 62.3641 548.767 62.4105C548.949 62.4569 549.085 62.5 549.175 62.5398L548.837 63.554C548.777 63.5341 548.694 63.5092 548.588 63.4794C548.485 63.4496 548.349 63.4347 548.18 63.4347C547.793 63.4347 547.512 63.5324 547.34 63.728C547.171 63.9235 547.087 64.2102 547.087 64.5881V73H545.913ZM553.328 73.1591C552.593 73.1591 551.958 72.9967 551.424 72.6719C550.894 72.3438 550.485 71.8864 550.196 71.2997C549.911 70.7098 549.769 70.0237 549.769 69.2415C549.769 68.4593 549.911 67.7699 550.196 67.1733C550.485 66.5734 550.886 66.1061 551.399 65.7713C551.916 65.4332 552.52 65.2642 553.209 65.2642C553.607 65.2642 554 65.3305 554.387 65.4631C554.775 65.5956 555.128 65.8111 555.446 66.1094C555.765 66.4044 556.018 66.7955 556.207 67.2827C556.396 67.7699 556.49 68.3698 556.49 69.0824V69.5795H550.604V68.5653H555.297C555.297 68.1345 555.211 67.75 555.039 67.4119C554.87 67.0739 554.628 66.8071 554.313 66.6115C554.001 66.416 553.633 66.3182 553.209 66.3182C552.742 66.3182 552.337 66.4342 551.996 66.6662C551.658 66.8949 551.398 67.1932 551.215 67.5611C551.033 67.929 550.942 68.3234 550.942 68.7443V69.4205C550.942 69.9972 551.041 70.486 551.24 70.8871C551.443 71.2848 551.723 71.5881 552.081 71.7969C552.439 72.0024 552.854 72.1051 553.328 72.1051C553.637 72.1051 553.915 72.062 554.164 71.9759C554.416 71.8864 554.633 71.7538 554.815 71.5781C554.997 71.3991 555.138 71.1771 555.238 70.9119L556.371 71.2301C556.252 71.6146 556.051 71.9527 555.769 72.2443C555.488 72.5327 555.14 72.758 554.725 72.9205C554.311 73.0795 553.845 73.1591 553.328 73.1591ZM564.287 65.3636L561.463 73H560.27L557.446 65.3636H558.719L560.827 71.4489H560.906L563.014 65.3636H564.287ZM566.212 73.0795C565.967 73.0795 565.757 72.9917 565.581 72.8161C565.405 72.6404 565.317 72.4299 565.317 72.1847C565.317 71.9394 565.405 71.7289 565.581 71.5533C565.757 71.3776 565.967 71.2898 566.212 71.2898C566.458 71.2898 566.668 71.3776 566.844 71.5533C567.019 71.7289 567.107 71.9394 567.107 72.1847C567.107 72.3471 567.066 72.4962 566.983 72.6321C566.903 72.768 566.796 72.8774 566.66 72.9602C566.527 73.0398 566.378 73.0795 566.212 73.0795Z" fill="#0F172A"/>
</g>
<defs>
<filter id="filter0_d_6_33" x="414.447" y="36" width="178" height="72" filterUnits="userSpaceOnUse" color-interpolation-filters="sRGB">
<feFlood flood-opacity="0" result="BackgroundImageFix"/>
<feColorMatrix in="SourceAlpha" type="matrix" values="0 0 0 0 0 0 0 0 0 0 0 0 0 0 0 0 0 0 127 0" result="hardAlpha"/>
<feOffset dy="4"/>
<feGaussianBlur stdDeviation="8"/>
<feComposite in2="hardAlpha" operator="out"/>
<feColorMatrix type="matrix" values="0 0 0 0 0.0588235 0 0 0 0 0.0901961 0 0 0 0 0.164706 0 0 0 0.15 0"/>
<feBlend mode="normal" in2="BackgroundImageFix" result="effect1_dropShadow_6_33"/>
<feBlend mode="normal" in="SourceGraphic" in2="effect1_dropShadow_6_33" result="shape"/>
</filter>
<linearGradient id="paint0_linear_6_33" x1="296.668" y1="63.4506" x2="296.668" y2="300" gradientUnits="userSpaceOnUse">
<stop stop-color="#7C3AED" stop-opacity="0.5"/>
<stop offset="1" stop-color="#7C3AED" stop-opacity="0"/>
</linearGradient>
</defs>
</svg>
