<svg width="264" height="162" viewBox="0 0 264 162" fill="none" xmlns="http://www.w3.org/2000/svg">
<g opacity="0.3">
<line x1="256.713" y1="108.603" x2="1" y2="108.603" stroke="#94A3B8"/>
<line x1="256.713" y1="161.5" x2="1" y2="161.5" stroke="#94A3B8"/>
<line x1="256.713" y1="57.0851" x2="1" y2="57.0851" stroke="#94A3B8"/>
<line x1="256.713" y1="1.5" x2="1" y2="1.5" stroke="#94A3B8"/>
</g>
<path d="M13.7856 61.7881L1 73.3775V161H256.713L243.927 65.3191L231.142 1L218.356 93.6984L205.57 97.937L192.785 23.8388L179.999 11.6844L167.213 121.445L154.428 56.1214L141.642 47.4976L128.856 32.8924L116.071 101.608L103.285 138.045L90.4995 114.878L77.7139 116.496L64.9282 67.6969L52.1426 92.0887L39.3569 78.7834L26.5713 33.3805L13.7856 61.7881Z" fill="url(#paint0_linear_17_110)"/>
<path d="M1 73.3775L13.7856 61.7881L26.5713 33.3805L39.3569 78.7834L52.1426 92.0887L64.9282 67.6969L77.7139 116.496L90.4995 114.878L103.285 138.045L116.071 101.608L128.856 32.8924L141.642 47.4976L154.428 56.1214L167.213 121.445L179.999 11.6844L192.785 23.8388L205.57 97.937L218.356 93.6984L231.142 1L243.927 65.3191L256.713 161" stroke="#7C3AED" stroke-width="2"/>
<line x1="219.816" y1="1" x2="219.816" y2="161" stroke="#94A3B8" stroke-dasharray="4 4"/>
<circle cx="219.316" cy="93" r="4" fill="#7C3AED"/>
<g filter="url(#filter0_d_17_110)">
<rect x="102" y="41" width="146" height="40" rx="4" fill="white" shape-rendering="crispEdges"/>
<path d="M114.236 66.1392C113.652 66.1392 113.127 66.0232 112.66 65.7912C112.192 65.5592 111.818 65.241 111.536 64.8366C111.254 64.4323 111.1 63.9716 111.074 63.4545H112.267C112.313 63.9152 112.522 64.2964 112.893 64.598C113.268 64.8963 113.715 65.0455 114.236 65.0455C114.653 65.0455 115.025 64.9477 115.349 64.7521C115.678 64.5566 115.934 64.2881 116.12 63.9467C116.309 63.602 116.403 63.2126 116.403 62.7784C116.403 62.3343 116.306 61.9382 116.11 61.5902C115.918 61.2389 115.653 60.9621 115.315 60.7599C114.977 60.5578 114.59 60.455 114.156 60.4517C113.845 60.4484 113.525 60.4964 113.197 60.5959C112.869 60.692 112.598 60.8163 112.386 60.9688L111.233 60.8295L111.849 55.8182H117.139V56.9119H112.884L112.526 59.9148H112.585C112.794 59.7491 113.056 59.6115 113.371 59.5021C113.686 59.3928 114.014 59.3381 114.355 59.3381C114.978 59.3381 115.533 59.4872 116.021 59.7855C116.511 60.0805 116.896 60.4848 117.174 60.9986C117.456 61.5123 117.597 62.099 117.597 62.7585C117.597 63.4081 117.451 63.9882 117.159 64.4986C116.871 65.0057 116.473 65.4067 115.966 65.7017C115.459 65.9934 114.882 66.1392 114.236 66.1392ZM120.959 64.608L120.879 65.1449C120.823 65.5227 120.737 65.9271 120.621 66.358C120.508 66.7888 120.39 67.1948 120.268 67.576C120.145 67.9571 120.044 68.2604 119.964 68.4858H119.069C119.113 68.2737 119.169 67.9936 119.238 67.6456C119.308 67.2976 119.378 66.9081 119.447 66.4773C119.52 66.0497 119.58 65.6122 119.626 65.1648L119.686 64.608H120.959ZM125.475 55.8182V66H124.242V57.1108H124.183L121.697 58.7614V57.5085L124.242 55.8182H125.475ZM131.784 66.1392C131.367 66.1326 130.949 66.053 130.531 65.9006C130.114 65.7481 129.733 65.4912 129.388 65.13C129.043 64.7654 128.767 64.2732 128.558 63.6534C128.349 63.0303 128.244 62.2481 128.244 61.3068C128.244 60.4053 128.329 59.6065 128.498 58.9105C128.667 58.2112 128.912 57.6229 129.234 57.1456C129.555 56.665 129.943 56.3004 130.397 56.0518C130.855 55.8033 131.37 55.679 131.943 55.679C132.513 55.679 133.021 55.7933 133.465 56.022C133.912 56.2474 134.277 56.5623 134.558 56.9666C134.84 57.371 135.022 57.8366 135.105 58.3636H133.892C133.78 57.9062 133.561 57.5268 133.236 57.2251C132.911 56.9235 132.48 56.7727 131.943 56.7727C131.155 56.7727 130.533 57.1158 130.079 57.8018C129.628 58.4879 129.401 59.4508 129.398 60.6903H129.477C129.663 60.4086 129.883 60.1683 130.139 59.9695C130.397 59.7673 130.682 59.6115 130.994 59.5021C131.305 59.3928 131.635 59.3381 131.983 59.3381C132.566 59.3381 133.1 59.4839 133.584 59.7756C134.068 60.0639 134.456 60.4633 134.747 60.9737C135.039 61.4808 135.185 62.0625 135.185 62.7188C135.185 63.3485 135.044 63.9252 134.762 64.4489C134.481 64.9692 134.084 65.3835 133.574 65.6918C133.067 65.9967 132.47 66.1458 131.784 66.1392ZM131.784 65.0455C132.202 65.0455 132.576 64.9411 132.908 64.7322C133.243 64.5234 133.506 64.2434 133.698 63.892C133.894 63.5407 133.992 63.1496 133.992 62.7188C133.992 62.2978 133.897 61.915 133.708 61.5703C133.523 61.2223 133.266 60.9455 132.938 60.7401C132.613 60.5346 132.242 60.4318 131.824 60.4318C131.509 60.4318 131.216 60.4948 130.944 60.6207C130.672 60.7434 130.434 60.9124 130.228 61.1278C130.026 61.3433 129.867 61.5902 129.751 61.8686C129.635 62.1437 129.577 62.4337 129.577 62.7386C129.577 63.143 129.671 63.5208 129.86 63.8722C130.052 64.2235 130.314 64.5069 130.646 64.7223C130.981 64.9377 131.36 65.0455 131.784 65.0455ZM146.506 60.0739L145.452 60.3722C145.386 60.1965 145.288 60.0258 145.159 59.8601C145.033 59.6911 144.861 59.5518 144.642 59.4425C144.423 59.3331 144.143 59.2784 143.802 59.2784C143.335 59.2784 142.945 59.3861 142.634 59.6016C142.325 59.8137 142.171 60.0838 142.171 60.4119C142.171 60.7036 142.277 60.9339 142.489 61.103C142.701 61.272 143.033 61.4129 143.484 61.5256L144.617 61.804C145.3 61.9697 145.809 62.2232 146.143 62.5646C146.478 62.9027 146.646 63.3385 146.646 63.8722C146.646 64.3097 146.52 64.7008 146.268 65.0455C146.019 65.3902 145.671 65.6619 145.224 65.8608C144.776 66.0597 144.256 66.1591 143.663 66.1591C142.884 66.1591 142.239 65.9901 141.729 65.652C141.218 65.3139 140.895 64.8201 140.759 64.1705L141.873 63.892C141.979 64.303 142.179 64.6113 142.474 64.8168C142.773 65.0223 143.162 65.125 143.643 65.125C144.19 65.125 144.624 65.009 144.945 64.777C145.27 64.5417 145.433 64.2599 145.433 63.9318C145.433 63.6667 145.34 63.4446 145.154 63.2656C144.969 63.0833 144.683 62.9474 144.299 62.858L143.026 62.5597C142.327 62.3939 141.813 62.1371 141.485 61.7891C141.16 61.4377 140.998 60.9986 140.998 60.4716C140.998 60.0407 141.119 59.6596 141.361 59.3281C141.606 58.9967 141.939 58.7365 142.36 58.5476C142.784 58.3587 143.265 58.2642 143.802 58.2642C144.558 58.2642 145.151 58.4299 145.582 58.7614C146.016 59.0928 146.324 59.5303 146.506 60.0739ZM151.613 66.1591C150.878 66.1591 150.243 65.9967 149.709 65.6719C149.179 65.3438 148.77 64.8864 148.481 64.2997C148.196 63.7098 148.054 63.0237 148.054 62.2415C148.054 61.4593 148.196 60.7699 148.481 60.1733C148.77 59.5734 149.171 59.1061 149.684 58.7713C150.202 58.4332 150.805 58.2642 151.494 58.2642C151.892 58.2642 152.285 58.3305 152.672 58.4631C153.06 58.5956 153.413 58.8111 153.731 59.1094C154.05 59.4044 154.303 59.7955 154.492 60.2827C154.681 60.7699 154.775 61.3698 154.775 62.0824V62.5795H148.889V61.5653H153.582C153.582 61.1345 153.496 60.75 153.324 60.4119C153.155 60.0739 152.913 59.8071 152.598 59.6115C152.286 59.416 151.918 59.3182 151.494 59.3182C151.027 59.3182 150.622 59.4342 150.281 59.6662C149.943 59.8949 149.683 60.1932 149.501 60.5611C149.318 60.929 149.227 61.3234 149.227 61.7443V62.4205C149.227 62.9972 149.327 63.486 149.525 63.8871C149.728 64.2848 150.008 64.5881 150.366 64.7969C150.724 65.0024 151.14 65.1051 151.613 65.1051C151.922 65.1051 152.2 65.062 152.449 64.9759C152.701 64.8864 152.918 64.7538 153.1 64.5781C153.282 64.3991 153.423 64.1771 153.523 63.9119L154.656 64.2301C154.537 64.6146 154.336 64.9527 154.055 65.2443C153.773 65.5327 153.425 65.758 153.01 65.9205C152.596 66.0795 152.131 66.1591 151.613 66.1591ZM159.643 69.0227C159.076 69.0227 158.589 68.9498 158.181 68.804C157.773 68.6615 157.434 68.4725 157.162 68.2372C156.893 68.0052 156.68 67.7566 156.52 67.4915L157.455 66.8352C157.561 66.9744 157.695 67.1335 157.858 67.3125C158.02 67.4948 158.242 67.6522 158.524 67.7848C158.809 67.9207 159.182 67.9886 159.643 67.9886C160.259 67.9886 160.768 67.8395 161.169 67.5412C161.57 67.2429 161.77 66.7756 161.77 66.1392V64.5881H161.671C161.585 64.7273 161.462 64.8996 161.303 65.1051C161.147 65.3073 160.922 65.4879 160.627 65.647C160.335 65.8028 159.941 65.8807 159.444 65.8807C158.827 65.8807 158.274 65.7348 157.783 65.4432C157.296 65.1515 156.91 64.7273 156.625 64.1705C156.343 63.6136 156.202 62.9375 156.202 62.142C156.202 61.3598 156.34 60.6787 156.615 60.0987C156.89 59.5154 157.273 59.0646 157.763 58.7464C158.254 58.425 158.821 58.2642 159.464 58.2642C159.961 58.2642 160.355 58.3471 160.647 58.5128C160.942 58.6752 161.167 58.8608 161.323 59.0696C161.482 59.2751 161.605 59.4441 161.691 59.5767H161.81V58.3636H162.944V66.2188C162.944 66.875 162.795 67.4086 162.496 67.8196C162.201 68.2339 161.804 68.5372 161.303 68.7294C160.806 68.925 160.252 69.0227 159.643 69.0227ZM159.603 64.8267C160.073 64.8267 160.471 64.719 160.796 64.5036C161.121 64.2881 161.368 63.9782 161.537 63.5739C161.706 63.1695 161.79 62.6856 161.79 62.1222C161.79 61.572 161.707 61.0864 161.542 60.6655C161.376 60.2446 161.131 59.9148 160.806 59.6761C160.481 59.4375 160.08 59.3182 159.603 59.3182C159.106 59.3182 158.691 59.4441 158.36 59.696C158.032 59.9479 157.785 60.286 157.619 60.7102C157.457 61.1345 157.376 61.6051 157.376 62.1222C157.376 62.6525 157.458 63.1214 157.624 63.5291C157.793 63.9335 158.042 64.2517 158.37 64.4837C158.701 64.7124 159.112 64.8267 159.603 64.8267ZM165.947 66.0795C165.701 66.0795 165.491 65.9917 165.315 65.8161C165.14 65.6404 165.052 65.4299 165.052 65.1847C165.052 64.9394 165.14 64.7289 165.315 64.5533C165.491 64.3776 165.701 64.2898 165.947 64.2898C166.192 64.2898 166.402 64.3776 166.578 64.5533C166.754 64.7289 166.841 64.9394 166.841 65.1847C166.841 65.3471 166.8 65.4962 166.717 65.6321C166.638 65.768 166.53 65.8774 166.394 65.9602C166.261 66.0398 166.112 66.0795 165.947 66.0795ZM170.697 64.608L170.617 65.1449C170.561 65.5227 170.475 65.9271 170.359 66.358C170.246 66.7888 170.128 67.1948 170.006 67.576C169.883 67.9571 169.782 68.2604 169.703 68.4858H168.808C168.851 68.2737 168.907 67.9936 168.977 67.6456C169.046 67.2976 169.116 66.9081 169.186 66.4773C169.258 66.0497 169.318 65.6122 169.365 65.1648L169.424 64.608H170.697ZM180.368 55.8182V66H179.135V57.1108H179.075L176.589 58.7614V57.5085L179.135 55.8182H180.368ZM186.737 66.1392C186.08 66.1392 185.495 66.0265 184.982 65.8011C184.471 65.5758 184.065 65.2625 183.763 64.8615C183.465 64.4571 183.303 63.9882 183.276 63.4545H184.529C184.556 63.7827 184.668 64.0661 184.867 64.3047C185.066 64.54 185.326 64.7223 185.648 64.8516C185.969 64.9808 186.326 65.0455 186.717 65.0455C187.154 65.0455 187.542 64.9692 187.88 64.8168C188.218 64.6643 188.483 64.4522 188.675 64.1804C188.868 63.9086 188.964 63.5938 188.964 63.2358C188.964 62.8613 188.871 62.5315 188.685 62.2464C188.5 61.9581 188.228 61.7327 187.87 61.5703C187.512 61.4079 187.075 61.3267 186.558 61.3267H185.742V60.233H186.558C186.962 60.233 187.317 60.16 187.621 60.0142C187.93 59.8684 188.17 59.6629 188.342 59.3977C188.518 59.1326 188.606 58.821 188.606 58.4631C188.606 58.1184 188.53 57.8184 188.377 57.5632C188.225 57.308 188.009 57.1091 187.731 56.9666C187.456 56.8241 187.131 56.7528 186.756 56.7528C186.405 56.7528 186.074 56.8175 185.762 56.9467C185.454 57.0727 185.202 57.2566 185.006 57.4986C184.811 57.7372 184.705 58.0256 184.688 58.3636H183.495C183.515 57.83 183.676 57.3627 183.977 56.9616C184.279 56.5573 184.673 56.2424 185.161 56.017C185.651 55.7917 186.19 55.679 186.776 55.679C187.406 55.679 187.946 55.8066 188.397 56.0618C188.848 56.3137 189.194 56.6468 189.436 57.0611C189.678 57.4754 189.799 57.9228 189.799 58.4034C189.799 58.9768 189.648 59.4657 189.347 59.87C189.048 60.2744 188.642 60.5545 188.129 60.7102V60.7898C188.772 60.8958 189.274 61.1693 189.635 61.6101C189.996 62.0476 190.177 62.5895 190.177 63.2358C190.177 63.7893 190.026 64.2865 189.724 64.7273C189.426 65.1648 189.018 65.5095 188.501 65.7614C187.984 66.0133 187.396 66.1392 186.737 66.1392ZM199.051 66.1591C198.415 66.1591 197.853 65.9983 197.366 65.6768C196.879 65.352 196.497 64.8946 196.222 64.3047C195.947 63.7114 195.81 63.0104 195.81 62.2017C195.81 61.3996 195.947 60.7036 196.222 60.1136C196.497 59.5237 196.88 59.0679 197.371 58.7464C197.861 58.425 198.428 58.2642 199.071 58.2642C199.568 58.2642 199.961 58.3471 200.249 58.5128C200.541 58.6752 200.763 58.8608 200.915 59.0696C201.071 59.2751 201.192 59.4441 201.278 59.5767H201.378V55.8182H202.551V66H201.418V64.8267H201.278C201.192 64.9659 201.07 65.1416 200.911 65.3537C200.751 65.5625 200.524 65.7498 200.229 65.9155C199.934 66.0779 199.542 66.1591 199.051 66.1591ZM199.21 65.1051C199.681 65.1051 200.079 64.9825 200.403 64.7372C200.728 64.4886 200.975 64.1456 201.144 63.7081C201.313 63.2673 201.398 62.7585 201.398 62.1818C201.398 61.6117 201.315 61.1129 201.149 60.6854C200.983 60.2545 200.738 59.9197 200.413 59.6811C200.089 59.4392 199.688 59.3182 199.21 59.3182C198.713 59.3182 198.299 59.4458 197.967 59.701C197.639 59.9529 197.392 60.2959 197.227 60.7301C197.064 61.161 196.983 61.6449 196.983 62.1818C196.983 62.7254 197.066 63.2192 197.232 63.6634C197.401 64.1042 197.649 64.4555 197.977 64.7173C198.309 64.9759 198.72 65.1051 199.21 65.1051ZM208.065 66.1591C207.329 66.1591 206.694 65.9967 206.161 65.6719C205.63 65.3438 205.221 64.8864 204.933 64.2997C204.647 63.7098 204.505 63.0237 204.505 62.2415C204.505 61.4593 204.647 60.7699 204.933 60.1733C205.221 59.5734 205.622 59.1061 206.136 58.7713C206.653 58.4332 207.256 58.2642 207.945 58.2642C208.343 58.2642 208.736 58.3305 209.124 58.4631C209.511 58.5956 209.864 58.8111 210.183 59.1094C210.501 59.4044 210.754 59.7955 210.943 60.2827C211.132 60.7699 211.227 61.3698 211.227 62.0824V62.5795H205.34V61.5653H210.033C210.033 61.1345 209.947 60.75 209.775 60.4119C209.606 60.0739 209.364 59.8071 209.049 59.6115C208.737 59.416 208.37 59.3182 207.945 59.3182C207.478 59.3182 207.074 59.4342 206.732 59.6662C206.394 59.8949 206.134 60.1932 205.952 60.5611C205.769 60.929 205.678 61.3234 205.678 61.7443V62.4205C205.678 62.9972 205.778 63.486 205.977 63.8871C206.179 64.2848 206.459 64.5881 206.817 64.7969C207.175 65.0024 207.591 65.1051 208.065 65.1051C208.373 65.1051 208.651 65.062 208.9 64.9759C209.152 64.8864 209.369 64.7538 209.551 64.5781C209.733 64.3991 209.874 64.1771 209.974 63.9119L211.107 64.2301C210.988 64.6146 210.787 64.9527 210.506 65.2443C210.224 65.5327 209.876 65.758 209.462 65.9205C209.047 66.0795 208.582 66.1591 208.065 66.1591ZM220.349 58.3636V59.358H216.233V58.3636H220.349ZM217.466 66V57.3097C217.466 56.8722 217.569 56.5076 217.774 56.2159C217.98 55.9242 218.246 55.7055 218.575 55.5597C218.903 55.4138 219.249 55.3409 219.614 55.3409C219.902 55.3409 220.137 55.3641 220.32 55.4105C220.502 55.4569 220.638 55.5 220.727 55.5398L220.389 56.554C220.33 56.5341 220.247 56.5092 220.141 56.4794C220.038 56.4496 219.902 56.4347 219.733 56.4347C219.345 56.4347 219.065 56.5324 218.893 56.728C218.724 56.9235 218.639 57.2102 218.639 57.5881V66H217.466ZM224.881 66.1591C224.145 66.1591 223.511 65.9967 222.977 65.6719C222.447 65.3438 222.037 64.8864 221.749 64.2997C221.464 63.7098 221.321 63.0237 221.321 62.2415C221.321 61.4593 221.464 60.7699 221.749 60.1733C222.037 59.5734 222.438 59.1061 222.952 58.7713C223.469 58.4332 224.072 58.2642 224.762 58.2642C225.159 58.2642 225.552 58.3305 225.94 58.4631C226.328 58.5956 226.681 58.8111 226.999 59.1094C227.317 59.4044 227.571 59.7955 227.76 60.2827C227.949 60.7699 228.043 61.3698 228.043 62.0824V62.5795H222.157V61.5653H226.85C226.85 61.1345 226.764 60.75 226.591 60.4119C226.422 60.0739 226.18 59.8071 225.865 59.6115C225.554 59.416 225.186 59.3182 224.762 59.3182C224.294 59.3182 223.89 59.4342 223.549 59.6662C223.211 59.8949 222.95 60.1932 222.768 60.5611C222.586 60.929 222.495 61.3234 222.495 61.7443V62.4205C222.495 62.9972 222.594 63.486 222.793 63.8871C222.995 64.2848 223.275 64.5881 223.633 64.7969C223.991 65.0024 224.407 65.1051 224.881 65.1051C225.189 65.1051 225.468 65.062 225.716 64.9759C225.968 64.8864 226.185 64.7538 226.368 64.5781C226.55 64.3991 226.691 64.1771 226.79 63.9119L227.924 64.2301C227.804 64.6146 227.604 64.9527 227.322 65.2443C227.04 65.5327 226.692 65.758 226.278 65.9205C225.864 66.0795 225.398 66.1591 224.881 66.1591ZM235.84 58.3636L233.016 66H231.823L228.999 58.3636H230.271L232.379 64.4489H232.459L234.567 58.3636H235.84ZM237.765 66.0795C237.52 66.0795 237.309 65.9917 237.134 65.8161C236.958 65.6404 236.87 65.4299 236.87 65.1847C236.87 64.9394 236.958 64.7289 237.134 64.5533C237.309 64.3776 237.52 64.2898 237.765 64.2898C238.01 64.2898 238.221 64.3776 238.396 64.5533C238.572 64.7289 238.66 64.9394 238.66 65.1847C238.66 65.3471 238.618 65.4962 238.536 65.6321C238.456 65.768 238.348 65.8774 238.212 65.9602C238.08 66.0398 237.931 66.0795 237.765 66.0795Z" fill="#0F172A"/>
</g>
<defs>
<filter id="filter0_d_17_110" x="86" y="29" width="178" height="72" filterUnits="userSpaceOnUse" color-interpolation-filters="sRGB">
<feFlood flood-opacity="0" result="BackgroundImageFix"/>
<feColorMatrix in="SourceAlpha" type="matrix" values="0 0 0 0 0 0 0 0 0 0 0 0 0 0 0 0 0 0 127 0" result="hardAlpha"/>
<feOffset dy="4"/>
<feGaussianBlur stdDeviation="8"/>
<feComposite in2="hardAlpha" operator="out"/>
<feColorMatrix type="matrix" values="0 0 0 0 0.0588235 0 0 0 0 0.0901961 0 0 0 0 0.164706 0 0 0 0.15 0"/>
<feBlend mode="normal" in2="BackgroundImageFix" result="effect1_dropShadow_17_110"/>
<feBlend mode="normal" in="SourceGraphic" in2="effect1_dropShadow_17_110" result="shape"/>
</filter>
<linearGradient id="paint0_linear_17_110" x1="128.856" y1="34.8403" x2="128.856" y2="161" gradientUnits="userSpaceOnUse">
<stop stop-color="#7C3AED" stop-opacity="0.5"/>
<stop offset="1" stop-color="#7C3AED" stop-opacity="0"/>
</linearGradient>
</defs>
</svg>
